/* XPM */
static char *xpm_[] = {
/* columns rows colors chars-per-pixel */
"64 64 163 2 ",
"   c #1F130F",
".  c #220E0A",
"X  c #24130D",
"o  c #2A160E",
"O  c #2E180F",
"+  c #251713",
"@  c #2A1611",
"#  c #271811",
"$  c #2D1A13",
"%  c #2E1E19",
"&  c #331D15",
"*  c #381E15",
"=  c #321F19",
"-  c #362016",
";  c #3A2216",
":  c #35221B",
">  c #3B251C",
",  c #3D291E",
"<  c #332521",
"1  c #3A2720",
"2  c #3E2A22",
"3  c #412616",
"4  c #40261B",
"5  c #422A1D",
"6  c #4A2F1F",
"7  c #51311C",
"8  c #432D24",
"9  c #482E24",
"0  c #432E28",
"q  c #482F28",
"w  c #453126",
"e  c #4B3225",
"r  c #46322A",
"t  c #4B352B",
"y  c #4E392C",
"u  c #533520",
"i  c #593723",
"p  c #5C3B27",
"a  c #513729",
"s  c #533A2C",
"d  c #5A3D2D",
"f  c #4C3731",
"g  c #4D3932",
"h  c #543D33",
"j  c #593E32",
"k  c #513E39",
"l  c #57412D",
"z  c #5F422F",
"x  c #564136",
"c  c #5B4235",
"v  c #54413A",
"b  c #5C443A",
"n  c #5D483D",
"m  c #66432F",
"M  c #6A432D",
"N  c #624535",
"B  c #654836",
"V  c #61463A",
"C  c #644A3C",
"Z  c #6B4E3C",
"A  c #724B35",
"S  c #6D503E",
"D  c #73523D",
"F  c #594641",
"G  c #5E4941",
"H  c #604741",
"J  c #644D42",
"K  c #6A4F41",
"L  c #675146",
"P  c #6C5243",
"I  c #6C554B",
"U  c #735544",
"Y  c #765946",
"T  c #7C5A44",
"R  c #715649",
"E  c #755B4B",
"W  c #7A5D4B",
"Q  c #705750",
"!  c #745D52",
"~  c #7A5E51",
"^  c #7D614E",
"/  c #766053",
"(  c #7D6252",
")  c #7D6559",
"_  c #7E685E",
"`  c #825A44",
"'  c #815E48",
"]  c #83624E",
"[  c #826553",
"{  c #886650",
"}  c #866855",
"|  c #8C6B55",
" . c #81665A",
".. c #856A5B",
"X. c #866C5D",
"o. c #8A6D59",
"O. c #8B6E58",
"+. c #8B6D5A",
"@. c #8D6E58",
"#. c #8D6D5A",
"$. c #8D6D5D",
"%. c #916B56",
"&. c #916E58",
"*. c #916F59",
"=. c #8E725E",
"-. c #90705C",
";. c #92735D",
":. c #93745F",
">. c #93765F",
",. c #98745C",
"<. c #95785E",
"1. c #836E65",
"2. c #886E61",
"3. c #8B6E61",
"4. c #867065",
"5. c #8A7261",
"6. c #8F7261",
"7. c #8E7461",
"8. c #8F7565",
"9. c #8E7469",
"0. c #967460",
"q. c #937564",
"w. c #957767",
"e. c #997663",
"r. c #987764",
"t. c #937966",
"y. c #967A65",
"u. c #997863",
"i. c #9B7B64",
"p. c #9C7B64",
"a. c #927769",
"s. c #94796A",
"d. c #9D7B68",
"f. c #9A7C6A",
"g. c #9F7F69",
"h. c #A17E69",
"j. c #9D816C",
"k. c #9D826D",
"l. c #9B8175",
"z. c #98837B",
"x. c #A3806B",
"c. c #A2826D",
"v. c #AB876F",
"b. c #A28772",
"n. c #A48572",
"m. c #A08375",
"M. c #A68A75",
"N. c #A78877",
"B. c #AA8A75",
"V. c #A5897A",
"C. c #AC8E7B",
"Z. c #B2947C",
"A. c #B9967F",
"S. c #A38B82",
"D. c #A68C80",
"F. c #AE9282",
"G. c #AD9285",
"H. c #B49582",
"J. c #BB9A83",
"K. c #B0968B",
"L. c #BE9D88",
"P. c #C09D85",
"I. c #C2A08B",
/* pixels */
"+.B j h g y % X $ r A M A ] ] ,.<.b.X.n s y t r 2 y 2.Z.=.$.S w 7 8 * y 8 0 h f 0 = = 8 9 8 q q s V A h.K K +.U [ 6.} 0.M.d.' U ",
"[ d V a g g : X # y A T | %.p.x.y.=.5.c x y g t 8 e W s.[ W B 0 4 a r c 8 1 r 0 9 8 * * 8 q j h q j s I 9 j N s C ~ W %.2.~ #.~ ",
"c J j 9 G n : X $ r l.&.%.:.h.{ f.^ c s x c n f 8 : c ( H C j = ; e w g r ; r f h f 8 ; b H J H j K b s 9 a y a V  . .U %.H c j ",
"h f j C h g $ $ , J y.) } $.w.#.+.^ c l s x x g 0 ; h E J H G g j b y s r 8 8 f r r 8 9 j } ! I H J J V C C v c j V J p i q a j ",
"0 0 g H v t - X : R R I D.G.a.-.t.( P a 9 8 t 0 > O 6 x x t r 2 r w w y 8 w 1 > > w 8 y L G F n L j n h k h h h 7 G c s 7 p f g ",
"g g v f h 8 - $ > g j J J 1._ W E K C e a q t 8 5 O > c y > < 2 > $ > 1 > > $ @ - < , r 2 2 f n H k j t r 2 2 r , 2 2 r u b g f ",
"% < < = : = $ o & 2 8 w g v k h h a K a t q = 8 8 * > 8 2 r v F v g r 1 : 1 : $ $ $ : < 1 2 2 g f q = = = = $ $ o O > % $ $ ; % ",
"    + + # X O O @ @ $ # % > 1 r v J P h e q q = 8 * > 1 g g g f g t w 2 w 2 > : : : , , 1 2 2 w 8 8 2 2 $ & = $ O % $ X $ X . @ ",
"+ + < # @ = $ $ $ o X o $ : 1 r x c C y 8 4 8 1 8 : 8 q t k k r w w 2 f r w > % & % ; : ; , 2 2 8 1 - > : > = = % % - > : $ + % ",
"v r t 8 * : & & * * o $ % : < : w c c t w 8 8 q * * e 9 e k 0 = 2 1 > , , w , - : , : , - ; 2 2 1 8 > > : * 8 8 w 2 r 1.G r g r ",
"K h e C 8 * $ % - & & O - 2 : : 4 e N c s q 8 q = * 4 9 q 8 * * - - - & > , , > 2 5 - ; - & , > 4 > > 8 8 8 f h C I / w.( [ s.[ ",
"P e 8 n h w $ $ = - ; > > , w 2 9 e j e 5 e r 1 & $ 4 e 9 * * 8 - & ; - e s y y B n , ; ; & w c h s b ) ) I  ...1.9._ I ) z.K.s.",
"[ Z s c g t : > - & 8 y n L c g V a 9 3 ; > > 0 = O 8 c j C b j y 6 w e c c l s l S s 5 ; ; y L W D ( ( [ P R } s.f.W N [ s.V.( ",
"R a c H x h $ : o o * a s P C B V h w 9 ; * 9 2 > * 8 s [ [ &.2.) ! Z n S b L c C L l e 3 5 c P ^ T ] [ Y U C E } [ W 6.n.f.P X.",
"N j C C v g , - $ > - s l R Y Y P J h h a n t r r 8 0 c 6.} [ S } s...^ ^ L b L n n y e Z P L Y ^ | ] ] U W B c P Y +.6.P N s d ",
"s 9 s H L J r 2 , > , h S P ^ ^ W 2...! ! b r r t 0 r K ..[ $.] =.i.y.+.8.) c l l w , e Z c L ^ ^ -.D W } q.B V i c Y c y i 9 w ",
"9 j H I G F r 8 2 , , c / U U ^ / 7.+.( ^ ) x r t 0 w P E Y U | 0.[ ^ $.q._ v w r : > , a e V E ^ =.D E ..2.K 9 3 C c e e e 5 4 ",
"q j H Q j f 2 0 , 2 > w C C R ^ S ( ^ U P I x y t 6 6 E U #.| W W [ =.$.{ _ v 1 1 : > , c c V 6.X.E P Z ! P k 9 4 c s 5 ; 4 e w ",
"8 q H ..G 0 2 0 w ; - , u l U D Z D U I n J l g t > e y.6.W Z A W { } &.V.1.v : % % 2 2 b c Y ^ ^ V n n ! K h e 5 e 5 ; > 5 h j ",
"q 8 j J c 0 1 : ; - - , e l ^ / C / E P x n v l s 5 e V.f.^ C.%.A W S Y { I g : % : > > c s B E / P l l K V y & ; * - ; 5 4 y h ",
"e 8 j V s r 1 1 > > ; ; e y ^ ..) +.| ..n / l l s e i F.B.#.L.,.M ` &.[ ( P r $ $ & $ > a s B W ! P e a H h q & & & - ; ; 6 h a ",
"a 9 f j e f 1 2 : : - , s l ^ ( } =.t.:.X.^ G c s 5 s M.H.$.H.h.A A .. .R j 0 @ # # $ & e d I U b n w h y 8 > & = - - > a e h s ",
"q q 5 9 q 2 = 2 : , 2 t l x B Z X.s.t.l.M.S n x a e e :.;.} J.v.` M | } P n w . X O ; 4 h h h h t r r g r 8 & = = = 5 r s e y t ",
"8 q 8 8 8 > & 2 > : - - > , 6 6 S X.Y | y.B z l a 5 s D Z D j.,.[ U U Z d h 3 . X O - ; g y y t r r 2 0 1 q = = 8 8 8 w y 6 e r ",
"* * q q 8 1 : w , : : > > 5 5 3 s { q.t.s.P c a 6 ; 7 7 T C.c.#.#.` P B 6 5 * X o . * 3 t y a y t 9 > * & * * * > 8 8 8 9 q q 0 ",
"h f b a 8 $ : 8 1 , , > 8 e c C c Y f.X.2.C c s ; 3 N D $.P.J.M.E U W ] a 3 & o X & & 9 8 3 5 8 q 0 & O O = & & & = & > 9 q a 9 ",
"b k k j g : 1 2 w 5 , > 8 5 a c I [ W W ( E C c 5 3 B | ] #.A.P.{ U W Y N B & . & & & s e e 9 8 q q 8 8 0 9 * * 0 8 8 s B R $. .",
"P j j k t 1 > r t , ; > 3 ; 5 e c ^ 7.B W [ P d 6 i m l p T &.-.n.T ] ] ] h = X X & 0 I r.&.E P J b s a 9 8 0 e j c R X.2.E =.q.",
"R j h h f 8 1 2 r , - - , ; > e a P i.Y ( ( Y B N Y 7 7 i | ,.h.B.d.C  .! g < @ + 2 ) z.{ #.U U { 2.2.C C V 9 a l l } c.w.D ,.t.",
" .I k c f 2 r w , > - - , 6 ; y s C } S q.[ Z C S ^ T p m | A.h.W C j c f v : + < f S.9.d.w.[ ` &.g.w.B j V 8 5 y ( j.j.g.| :.S ",
"r.R a b w = g t w , - & 5 s e 5 6 s S W q.U Y U } U D T ] =.;.' B d G y 2 k < X + r S.d.w.#.#.' +.f.=.E J j t r 5 ( O.j.<.;.] ^ ",
"K 8 * j q > v g w , - ; s l w > e s W u.k.E $.[ U ^ } b.x.,.&.D { ] n k 2 g %   % g f.:.[ w.T { ] f.q.R j j w > > l M.v.O.<.^ N ",
"u 8 * y 0 0 h f r : & 4 9 8 w w s B Z m.K Z  .Y [ 2.| -.M.g.' D #.B j h h f % + : r A M A ] ] e.-.b.X.V s s r q 2 r ..Z.#.+.Z w ",
"5 e y c 8 > r 0 0 0 * * 8 t c x a j a K a j N s C ~ W %.3.~ +.( [ d c a g h = . o y A T %.| w.h.p.q.=.c h s h f q e ) s.{ W C 5 ",
"* e 0 s 0 > r g g g 8 * c H G F j J c j 9 a y a V ~ +.U | J c c b J d e G F = X $ r k.&.%.:.d.| f.^ c s c v G f 8 > c ( C C j * ",
"j c t h 8 0 0 g t t 9 9 j ../ I J J J c C C b x c C J p i 9 t h f a j H h h $ $ 1 J t.) { $.w.#.X.^ c l s k h f 0 ; s E J C H g ",
"r 8 8 r 0 9 > : : q 0 t L G G F J k V j x h h x u C j s 7 p s g r 2 g J v y & X < R R R D.G.t.=.=.( S t w w t r ; O w v x t 0 2 ",
"1 % > 0 > = & @ = 1 4 9 r 2 g v V j k f r 1 1 w 2 1 2 t e n g y g g v r j 2 - $ > t h J L 1.) E / L Z e y w t 8 5 $ > h t 1 1 0 ",
"v g t ; = 1 = $ = $ = 1 : 2 2 y y 8 = > - : $ $ X $ - : $ & : % % < : < : - o $ & 8 w w t v v x s e S t e w > , 8 ; 1 2 2 r v F ",
"g r w 8 0 q 1 : = = 2 * , 2 2 w 8 0 1 2 $ $ % $ $ $ $ X $ .   @   + + # @ X $ o @ @ # o : < < r c L I l e r 8 > 8 * 1 2 g g g f ",
"r 2 2 r r w , % $ - : : , 2 2 , 8 1 = : - > = : : $ > : : $ X % % + < + o - @ & $ o o o $ : : w j b C a 0 1 8 1 > * 8 w t g k r ",
"2 2 > > , w , - & , : , % , 2 , > 0 > > : ; 8 1 0 8 r 1.H r g r k 2 f 2 = : = & & & o @ % : < 2 r j j e 9 8 8 q : : e t e n 0 : ",
": - - - - , , > 2 e ; ; - ; > , 2 * > 0 0 8 g h G I ! q.) } s.[ S d t G 8 & % $ - * & O - 2 : > 4 y N j f 9 q 0 * * ; 8 8 8 > & ",
"> & - ; 9 l y y c n 2 ; ; O 6 x h a C ~  .R  .) 1.9.) R ) l.K.s.P e w n h 0 $ $ & - ; > > 0 2 , 5 e j a 5 9 q > * $ 4 e 9 * * 4 ",
"y 5 e e c l v l c Z a 5 - & s P W T ~ ~  .P R [ q.f.W V { s.V.( ( K j c h r = > : & > s b J c h C y 9 4 > 4 ; 8 * O 5 b j V b V ",
"} / L c S B P c Z L l e 3 5 c R W T ] [ E U C T ..[ W 6.b.j.P X.R t j H k h % : o o ; a s P C C B s e 8 * & 9 8 > & 0 s [ [ &...",
"} a...^ ! P n C n C e e Z P P R W ;.' [ Y W C z P Y +.$.P V s d B d C V j h 1 : & : ; a c Y R P P J h v t F f r t 0 q V 9...[ K ",
"=.f.t.=.7.) c x s t 4 e C c Z W W ;.D W } q.B B i c Y c y s 9 w s e s H P G t 2 , > , h Z U ^ ^ ^ ....E ! F q q r 9 9 J ..] $.{ ",
":.} ^ +.7._ v r w > : 1 y e B E W 6.Z E ....Z w > C c e u y 4 3 0 j n I F F f r 2 , > c ^ P U ^ W w...[ ^ ) x r t w w P E Y D } ",
"^ ] =.#.{ ) v 1 1 1 > 2 c c V 7.$.E R C / P c 6 5 c a 5 > ; e w q j G Q b f 1 2 2 2 > 6 C C E ^ K ( ^ R L I l t t 2 w E U +.#.T ",
"W { +.$.C.4.n % + % 2 1 c c R ( ( C C V / P h y 5 e 5 ; > 8 s h 8 r n ..G w 1 2 2 , - , e l S S Z Y U I n L x y e , e y.q.W Z Z ",
"A E D Y ( P g : % 1 > > c s B Y ! P h s P b e : - - ; ; 4 4 y x 9 8 b C b w > > > - - , e l ^ ( B E E P c G c y y 6 e M.f.' Z.%.",
"M ` &.[ ^ P r $ $ $ & 4 y s Z W ! I t a H f q & & & - : ; 9 h a t 8 j j y r , , : > - ; w s ^ } ) =.| ..n / x h a e a F.B.#.L.e.",
"A A  ...R h 8 $ o o $ - e d I U j F q s s q * = - - * : a e y s a q h j e y , 1 : > - 2 s l ^ ^ ) =.i.-.X.T P c s 9 s M.Z.#.H.h.",
"` M } #.P b r . X & & 4 s x h h r f q t r q = @ & : 8 r a a y t q q 9 8 t , : 2 , : 2 l l v z Z X.k.a.l.b.D C s s e e w.&.{ J.v.",
"{ P D Z j h > . . o & ; h t y t q 0 0 q < q 1 * > 8 8 r a e e w 4 9 8 8 2 , % , : - - - , , 7 6 S X.E } y.B c l a > i S Z U i.q.",
"$.` Z N 9 4 & . o o * 3 a y y t t w 2 * = * * & > 8 2 8 w w w , & 4 q q 9 1 = q , > - > , , 5 , p [ q.t.s.P c s 6 ; 7 7 W B.c.=.",
"W U E [ s 3 & + X * O e 5 4 5 8 t 8 & O O = & & & : & > y t y e h t b q 9 O : 8 , , , > 5 e c C c Y s.5.X.Z c s ; 3 B A &.I.J.n.",
"{ U Y T B B % . $ & & s e e w 6 r 0 8 5 8 9 * & 9 5 8 d V E X.[ b h b k f = < q w 5 , , 9 5 y c E [ W W ( E C c 3 3 B { ] &.A.I.",
"v.W ] ] ] h < + X & 8 P u.-.E P J c s s 9 5 9 a j j I ..=.T =.=.I j h h t 2 = q r , ; > > ; 5 e c ^ 7.B W ( P d 7 s B l p D | <.",
"B.f.C ..Q g < + % 2 ) z.| #.U U [ 3...C C j 9 e h c ..N.<.D <.j.R j h h f 2 > 8 e , - - 3 > > e y P f.Y ( ( E B N Y 7 7 i | ,.c.",
"W B j j g F < + % f S.s.f.#.} T :.h.w.B c V 9 9 a  .p.k.j.| =.S ) P h b h 8 r 0 , : - - 5 8 3 a t B } Z q.[ Z B P W T p M | A.x.",
"B d C t 2 k <   + r f.z.y.#.&.' #.w.&.~ J j t 9 , / | ,.=.:.] W f.E s v r = g r w , * & 8 s e 5 9 s P W q.U Y U | U U T ' ;.&.' ",
"{ [ b s 2 g %   % k h.,.[ e.T | [ g.9.P j j 8 8 > l M.B.#.,.] N P > - j w 1 v g r 1 - * a j w ; e d W ,.h.E X.{ Y W } n.h.,.;.D "
};
