/* XPM */
static char *xpm_[] = {
/* columns rows colors chars-per-pixel */
"64 64 192 2 ",
"   c #003700",
".  c #003D00",
"X  c #5F0000",
"o  c #640000",
"O  c #6C0000",
"+  c #740000",
"@  c #7C0000",
"#  c #7D1500",
"$  c #472708",
"%  c #462D0A",
"&  c #4D2C0A",
"*  c #532E0B",
"=  c #592F0C",
"-  c #47310C",
";  c #49340D",
":  c #493A0E",
">  c #56310C",
",  c #5A340D",
"<  c #5D390E",
"1  c #60370D",
"2  c #60390E",
"3  c #4F3221",
"4  c #483D2D",
"5  c #533422",
"6  c #543925",
"7  c #5B3A25",
"8  c #553D2A",
"9  c #5B3D2A",
"0  c #613B26",
"q  c #633E29",
"w  c #004400",
"e  c #004C00",
"r  c #005300",
"t  c #005B00",
"y  c #006300",
"u  c #006B00",
"i  c #007300",
"p  c #007B00",
"a  c #2E4137",
"s  c #2F4639",
"d  c #31473D",
"f  c #314A3D",
"g  c #4C422E",
"h  c #54412D",
"j  c #5C412D",
"k  c #4D4332",
"l  c #524534",
"z  c #5B4432",
"x  c #554936",
"c  c #554739",
"v  c #564B3A",
"b  c #5B4D3C",
"n  c #57513D",
"m  c #5B513D",
"M  c #63432D",
"N  c #69442D",
"B  c #624733",
"V  c #684731",
"C  c #634936",
"Z  c #6A4B35",
"A  c #634C3B",
"S  c #6A4D39",
"D  c #66503F",
"F  c #6E513C",
"G  c #7E5439",
"H  c #334C42",
"J  c #345245",
"K  c #34544A",
"L  c #38544E",
"P  c #36594D",
"I  c #365652",
"U  c #365B54",
"Y  c #385C54",
"T  c #375C59",
"R  c #385B58",
"E  c #574F40",
"W  c #5B4F41",
"Q  c #575140",
"!  c #5C5241",
"~  c #645341",
"^  c #6D5441",
"/  c #6F5D44",
"(  c #625648",
")  c #705643",
"_  c #6F6249",
"`  c #75644C",
"'  c #78694F",
"]  c #7A694F",
"[  c #7A6954",
"{  c #7A6C54",
"}  c #7F6D59",
"|  c #7F715A",
" . c #840000",
".. c #8B0000",
"X. c #940000",
"o. c #9D0000",
"O. c #821700",
"+. c #851800",
"@. c #8B1A00",
"#. c #911C00",
"$. c #A30000",
"%. c #AC0000",
"&. c #B30000",
"*. c #BC0000",
"=. c #972900",
"-. c #9B2B00",
";. c #A32E00",
":. c #A53200",
">. c #AA3400",
",. c #AF3B00",
"<. c #B53B00",
"1. c #B33D00",
"2. c #C40000",
"3. c #CC0000",
"4. c #D10000",
"5. c #D80000",
"6. c #B54100",
"7. c #BC4300",
"8. c #BF4800",
"9. c #BB5E00",
"0. c #BF6400",
"q. c #BD6C00",
"w. c #BE7000",
"e. c #84553B",
"r. c #89583D",
"t. c #C34500",
"y. c #C44B00",
"u. c #CA4C00",
"i. c #C65100",
"p. c #CC5200",
"a. c #D25300",
"s. c #C46400",
"d. c #C36B00",
"f. c #CB6D00",
"g. c #C37400",
"h. c #855C40",
"j. c #895B41",
"k. c #866243",
"l. c #896245",
"z. c #87664C",
"x. c #8A664B",
"c. c #806A4F",
"v. c #8D6A4D",
"b. c #95694B",
"n. c #926C4E",
"m. c #806D54",
"M. c #806E54",
"N. c #8C6B52",
"B. c #806E5A",
"V. c #936E52",
"C. c #817154",
"Z. c #80725A",
"A. c #84745C",
"S. c #8A755E",
"D. c #85795F",
"F. c #8A795F",
"G. c #947154",
"H. c #95735B",
"J. c #9B7759",
"K. c #A37B58",
"L. c #857964",
"P. c #8A7C64",
"I. c #907D64",
"U. c #9F7D63",
"Y. c #008300",
"T. c #CC8200",
"R. c #CC8B00",
"E. c #94825D",
"W. c #988364",
"Q. c #988964",
"!. c #908169",
"~. c #A08464",
"^. c #A08964",
"/. c #A0846C",
"(. c #A38C6C",
"). c #A78F73",
"_. c #A79573",
"`. c #AE9673",
"'. c #AB9C73",
"]. c #AF977B",
"[. c #AF9C7B",
"{. c #B69E73",
"}. c #B69C7B",
"|. c #AFA27B",
" X c #B6A37B",
".X c #B69E82",
"XX c #AFA582",
"oX c #B6A282",
"OX c #BEA582",
"+X c #BAA886",
"@X c #BEA98A",
"#X c #C5B08C",
/* pixels */
"l v b c l l l l b b b v v n x k l v n n v v m ! n v Q ! E v v ! v v v k l l x v ! m k g x n x m v l v n x l l v l z v m D m m n ",
"{ { ] [ m.m.[ / ` [ ` ` [ A.A.} | } ' | L.!.L.[ { { Z.L.A.} } L.} | S.L.A.L.Z.P.P.P.P.A.A.| | | | { { | { [ ] B.S.A.N.m.C.A.D.E.",
"v b v l l v W W ! m ! m m ! m ! ! ! ! ! Q m Q m v v v ! b c l v b v v k l v m ! v c E E x x v v v v x v v v v l l l x v v v v v ",
"* 1 , , > , , & & > & , , , & , & , , * < , , & , > , , * & , , , < , * , * , > > = * * < , , , * , < , * * * > = * * = * * * > ",
"> ; w w e t y u y y t e w e & , * , * * 1 * , & , , > , , % ; , 1 1 , * , * * , * , , * > > < , * > , , * = , ; 5 7 M N q 7 ; & ",
"1 ; w w r t u u y u t e e e ; , * * * & , , , % , & , * , * , , 1 2 & , , * * , * , > & * > 2 , * > * > , > , ; 5 7 N N M 7 & & ",
", ; w w r t u u u y t r e e ; , , & * & , 1 > & , * , , , * , , , , & , , , * , * , = $ * > 2 , > , * > , , , - 5 j N V M 9 % & ",
"& ; w . e t u u u u t t e e ; , 1 % T T T ; > * * * , & * > , , * , & , , , & , , > * & > > 2 2 , , * * , = * & 6 M V M 9 8 % & ",
"& ; w w r y u u u u y r e e ; , , % R T T % , * > > * & , * < > & 1 & > 1 , & , = & $ = , & 2 1 > , & * , & , - h M Z S z j % , ",
"& - w w r t u i u u y t r r % * < % R T T % , > , > > * , & < , & > $ , 1 * * * * , = * > & 2 > , 1 * = , & , % z C ^ F A z % , ",
", % w . e y i p i i u t r e - > , % T R T % , * , = , , , * 2 , & > $ > , , & * % , , * , & < > , , * * 1 & , % b A ^ ^ A z % * ",
", % w w r t u i i i u t r r ; , > % T T T ; > % , & = , , & , , & , & , , * & & & = ; o # ;.8.8.u.u.>.@.O & * % b A ^ F A l % > ",
", - w w r t u u i i u t r e % > , % T T T ; , $ , $ * * < * , , * , , 1 * * $ * * * ; o +.:.u.y.y.i.,.@.O - * % A ~ ^ ^ A c % * ",
"* % w w r t u u u u y t e r % > , % T T T % = * , & , & ; 3.%.....%.2.; * * % , , & % O +.:.u.u.p.p.1.@.O - , % A ~ ^ ^ A z ; , ",
"* & w w r t u u u u t r e r ; , > - T I U $ % H.G.N.; & : 2.$. ...%.2.; > , & , , - - O +.>.p.p.p.a.,.@.O ; > $ A ~ ) ^ A z ; * ",
", % w w e t u u u u y r e r - , > - U I I ; ; V.H.z.; $ ; *.$. . .$.2.; , 1 , 2 , & ; O @.>.p.p.p.p.1.@.O ; > $ A ^ ) ^ A z % & ",
", ; w w r y u u y y t r w e - > , ; P K P - ; N.G.n.; , - *.o. .@ $.2.; , , , , > > : O @.:.i.p.a.a.<.#.O ; , % W W ^ ) A z ; & ",
"& % w w r t u u u y t r e e - , , - P K K ; ; n.V.v.- , ; 2.$. . .%.3.; , & > , , > ; O @.>.i.p.a.a.<.@.O ; , % A A ^ ^ C z - > ",
"* % e e r y u y u t t r w w - , > $ K K K : ; v.V.v.% , : 3.%...X.%.4.; > & & > * & ; O @.,.p.p.a.a.>.+.o ; > % b ~ ^ S z h % > ",
", - w w r t u u u t r r w w ; < > % P J K - ; z.V.z.% , ; 3.%. .X.&.3.; * % $ , * & ; o @.>.p.p.a.u.>.+.o - , % z A S B z h ; > ",
", % w e r y u u y r r r w w : , > ; U K K % - c.V.z.% * ; 2.%.....&.3.; , & $ , * & ; O @.>.p.p.y.y.:.+.o ; , - l C S j j j ; > ",
"> ; w w r y u y t t r e w w : , & ; P K J - ; k.V.z.; & % 2.%.....%.3.; , = $ > , * ; O @.:.y.y.y.y.>.+.O - , ; j C B j j 6 : > ",
"& ; e w r y u u t r r e w w ; , * ; P K K % - z.V.x.% * % 2.%...X.%.4.; , , & * * , ; o @.>.y.y.y.y.:.@.O ; , ; x C M j h 6 ; , ",
"> ; w w t y u y t t r e . w ; , * $ K K K ; ; z.N.x.; * ; 2.%.X...%.4.% ; R.f.f.g.; - o +.:.y.y.y.y.>.+.O - , - C C j 9 j 5 - < ",
"> ; e e t y u u y t r e w w % , , % K K P ; ; N.H.N.; , % 2.%.....&.5.; ; R.f.d.w.; % o +.;.y.8.8.8.;.@.O % , - C C V M 9 6 % > ",
", ; e e r u i u y t r e w w ; * , % K I U ; ; N.H.H.; > ; 2.%.....%.4.- - R.d.q.w.% % X # ;.8.8.8.8.:.@.O % > % C C Z V j 6 - > ",
", ; e w t y i u y y r r w w ; * , % U I T % % H.J.H.; > % 2.%.....$.3.; ; T.d.s.w.% % o +.;.8.8.6.y.>.@.O % , % z C S Z j 6 - , ",
", % e e t y i i u t r r w w ; , * % T T T % ; H.U.H.- ; ; *.$. . .$.2.; - R.d.d.g.% ; o +.:.8.y.6.8.>.@.O - , $ 8 B S Z j 6 ; , ",
", & e e r y u u y t r e w w ; , & ; T T T ; ; U.U.H.; * & *.$. . .$.2.; ; R.f.f.g.& : o +.:.8.8.6.8.>.@.O ; , $ z z S Z j 6 ; , ",
"! b v v v v c 4 k k 4 l v b b v v v v b ! ! ! ( ! ! Q b m ! ~ b b ! ~ A ! ~ ! ! v m ! b v v v v v v ! ~ E m ! ( v v v v v m v v ",
"| A.A.P.!.!.P.A.D.L.| L.A.L.A.B.A.L.} Z.| } | A.L.A.{ ] ` ' { m.` ` ] A.B.{ ` / { F.L.L.| | | !.{ | F.D.| | Z.L.D.A.L.D.| L.L.!.",
"].].oX@X#X@X}._./.J.W.Q._.].}..XoX.X[..XoXoXoX@XoXoXOX@XOX`.(.Q.~.~.).(.^.U.(..XOXOXoX'._.|.+XXX X(.W.Q. X+X'.W.I.Q._._._._._._.",
"Q.(.`.}..X}.oXoX'.{. X{. X XOXOX`.}.}.}.`.(.(.Q.Q.^.(._.`. XoXoX].(.E.Q.}.].Q.Q.@XoX[._.[. X#X#X@X].(._.oX@X.X.XQ.(.^./._.oXoX}.",
"B.m.{ m.{ A.A.F.I.!.P.P.F.F.A.m.c.` / ` N.B.B.} A.D.P.P.P.L.A.A.D.A.Z.A.L.A.| F.Z.Z.Z.A.D.!.D.D.{ { [ [ ` ` [ | Z.L.[ ` B.A.A.L.",
"! v k k k x l v l k k k x b v m A b v v c c v c v m ! m v v v v ! m ! ! ! b n ! ! ! ! b n m ! n ! b v m ! ! ! ! m ! ! W ! ~ W b ",
"* * > , > , , * 2 , , , , > > , , & , , , 2 , * & , & , > , > & * , , * , , , < * * , , , , & > , , & , , , , , = * 1 & 1 & , & ",
", * , , , * , * , , , , , * & , , & , 2 ; z B S S z 8 ; > , , , & , < & & , , , = * , , , 1 * * , ;   w e t y y u u y r w w ; & ",
", = , , , , , & , , , , , * & , , > , , ; z z S A B z ; ; , , , & * 1 & & , > > , * = , = = = * 1 ;   . e t u u u i u r w w ; * ",
", , * , , * , * , , 2 , = > * > , , , , ; z C S S z z $ & , > & * & , > & , , ; , & = , * = = & , %     e t u u i i u t e e ; * ",
", , * = , , 1 > , > 2 , * * , * * , * , ; z C S S B z % & , < & = $ , , * , , , , * ; Y I U % & 1 ; . . e t y u u i y t e e ; > ",
"* = , > * , , * , , , , * * , , , * & , ; 8 B S F C z % > , > , 1 , * , , * , > ; , ; T I K ; * , ; . . e t u y u u y t e r ; , ",
"& * , * * = * = * , , , , * , > % > , , ; z B S F A B ; > , , , , , * = * , < , * * % U L K ; * , ; . . w r y y y y t r e e : , ",
"$ , , = , * * * = , , , = * , = & , , , ; 8 C S F S z ; > , > , , , , * & , < > & & % U I P ; , , ; w   w r y y y y r e w e ; & ",
"$ 1 , * , = * ; o O.-.t.7.<.<.;.O.o ; , % z B F F C z : > , > ; > , , = & , , & & , $ U I P ; , > - w . w r t t y t r w w w ; & ",
"* > > * = , , % o # =.<.t.6.6.;.+.o % , ; z z S F C z : * , , , > > , , * * , % * , % U U Y ; , & % w w e e t t y t e w . w ; > ",
"* * > = & > , - X # =.t.t.6.6.;.+.o % , ; 9 j S F C z ; % 2.$... .$.3.; * * , , , , & Y U Y ; 2 & % w w e r y y y t r e . w - , ",
"* * , > & * , ; o O.;.t.t.6.6.-.+.O ; , ; 8 z Z S C z : % 2.$. . .$.*.% * & x.V.N.: ; Y Y Y ; , * % w e e t y y t t r w . . - & ",
"* , , , > > , & o O.;.t.t.7.6.-.# o ; 1 ; 8 M Z S B j ; % *.o. . .$.*.; * % l.b.l.; ; L I Y ; , , ; w w r t t y t t e e . w ; , ",
"* & * , > > , % o +.;.7.t.t.7.-.# o ; , - h M M V M j ; % *.o. .@ o.&.- * ; e.r.j.; ; K P Y % , , % w w r t y y t t r w . w % * ",
"> & * , > > , ; o +.;.7.<.t.7.;.+.o ; , : 6 j N M j 8 ; % *.o. .@ o.&.% = ; e.r.e.; ; f H J % , , % e e r t y y t t e w . w - & ",
"* & * > > > , ; O @.;.t.t.t.t.;.# o ; > ; 6 M N N 9 6 - $ &.X.@ @ X.&.% = : e.e.e.% & f f J - , > % w e t y y y t t e w . . - > ",
"> * > , > , , - O @.>.u.t.t.u.:.O.o ; > : 8 9 N N 9 5 ; ; &.X.@ @ X.%.- > ; e.r.G ; ; f H J - > , % w e r y u t t r e w . . - > ",
"* , , > > , , % O +.;.t.t.t.t.-.O.o ; , ; 0 q N N q 5 ; ; &.X.@ @ X.&.; * - r.l.h.% - H f H ; > , - e e r y u t t t e w w . % > ",
"> , , , > , , $ o O.;.8.t.<.<.=.# X - , ; 5 0 N q 5 5 ; ; &.X.@ + X.&.; * % v.K.b.; ; s a s : , 1 - e e r y u y t t r e w w - & ",
"> > > > , , * $ o O.;.t.8.7.6.=.# X % > ; 3 0 q 0 7 3 ; - %.X.@ @ o.*.; & % n.K.J.% % d a a ; , , % e e t y i y y y r e w w % & ",
"> % T.s.9.q.; ; o O.;.7.6.6.<.-.# o - > & 3 5 M N 0 5 ; % &.X.@ @ $.2.% & % G.K.G.% % f a a ; , > - r r t u i u y y r e . w % = ",
", ; g.s.0.d.; % o @.:.8.6.6.7.=.# o ; > % 6 j N V B 6 ; % *.$. . .%.3.% > % G.K.n.; ; J H J ; , & ; e e t i p i u y r e . w ; * ",
", ; T.s.0.q.% % O +.;.6.<.6.6.=.# o ; , ; 6 j V Z V 8 ; % *.$. . .$.2.; > ; n.J.v.; ; J J K ; , & ; w w t u i u u y t w . . - * ",
", ; T.f.s.d.; ; O +.;.1.,.1.6.-.+.o ; , ; 6 j Z F V j ; - *.$. . .$.2.; , ; n.G.l.; - J K P ; < & ; w e t u p i u u t e . . - = ",
", % T.s.s.q.; ; o @.;.6.,.1.6.-.# o & , : 4 j F F B 8 ; ; *.$. . .o.*.; , ; b.b.k.; % J J I ; , * ; r r y p Y.p i u t r . . % , ",
"* ; T.s.s.q.% & O @.>.6.6.1.6.=.# o % > ; h z F F z h ; ; *.$... .o.&.> , ; b.b.h.; % K K U ; > , ; r r y i Y.p i i y r w w & , ",
"! ~ ~ ! ! ! v v ! b b v x b z v l k l g l x m m h x l l v b v c ! m b x n x v v ! b ! ! v v m ~ l c x v ~ m v x v E ( ~ W v b b ",
"L.L.P.I.P.| A.D.L.m.[ m.c.] [ m.Z.} [ Z.] C.C.E.A.A.C.C.] ` / / A.m.] ] ] A.D.F.z.m.A.S.} ] [ A.` _ _ ] A.S.m.] m.A.L.B.m.{ [ m.",
"m v k l n ( n k g l v ! b l x b b v x m m x g x n m m D v c l c l v v v b m b b v l 4 4 l v v x x v v v v v v v c b b b v b b c "
};
