/* XPM */
static char *xpm_[] = {
/* columns rows colors chars-per-pixel */
"64 64 103 2 ",
"   c #2E271E",
".  c #352D23",
"X  c #373026",
"o  c #393126",
"O  c #3D3529",
"+  c #3F382C",
"@  c #40372B",
"#  c #42392D",
"$  c #463E30",
"%  c #483F31",
"&  c #464032",
"*  c #4D4334",
"=  c #514636",
"-  c #534738",
";  c #564A3A",
":  c #5A4E3C",
">  c #5D513F",
",  c #584F40",
"<  c #5E5341",
"1  c #625542",
"2  c #665945",
"3  c #695B46",
"4  c #695C47",
"5  c #6B5C47",
"6  c #665C48",
"7  c #675D48",
"8  c #695D48",
"9  c #6A5D4B",
"0  c #6D5E49",
"q  c #6C5F4A",
"w  c #6D5F4A",
"e  c #6E5F4A",
"r  c #6C604B",
"t  c #6E604B",
"y  c #6E614B",
"u  c #6D604C",
"i  c #6F634F",
"p  c #70604B",
"a  c #70624C",
"s  c #70634D",
"d  c #72634D",
"f  c #74634E",
"g  c #72664F",
"h  c #76654E",
"j  c #6F6550",
"k  c #736751",
"l  c #726652",
"z  c #766650",
"x  c #766750",
"c  c #786650",
"v  c #796750",
"b  c #756952",
"n  c #7B6952",
"m  c #7A6A52",
"M  c #7C6B53",
"N  c #7D6B53",
"B  c #7E6B53",
"V  c #7E6D54",
"C  c #7E6E55",
"Z  c #7E6F56",
"A  c #7E6F58",
"S  c #7F7057",
"D  c #7E7058",
"F  c #806E56",
"G  c #816E56",
"H  c #816F56",
"J  c #826F56",
"K  c #807057",
"L  c #827057",
"P  c #827058",
"I  c #827158",
"U  c #83735A",
"Y  c #847158",
"T  c #857259",
"R  c #85735A",
"E  c #83745A",
"W  c #87745A",
"Q  c #87755B",
"!  c #86765B",
"~  c #87775D",
"^  c #89755B",
"/  c #89765C",
"(  c #88775C",
")  c #87785E",
"_  c #89795E",
"`  c #8B795E",
"'  c #897B5F",
"]  c #8C795F",
"[  c #8C7A5F",
"{  c #877A60",
"}  c #897A62",
"|  c #8A7A62",
" . c #8C7B60",
".. c #8C7C61",
"X. c #8E7C61",
"o. c #8E7E62",
"O. c #8E7F63",
"+. c #917E62",
"@. c #8E8165",
"#. c #908165",
"$. c #938265",
"%. c #938368",
"&. c #928269",
/* pixels */
". o O O o @ @ @ . . o O # # # @ @ @ o @ @ O + + $ $ + O O .     . @ # # @ # o @ + + $ + + X X . o . X o + + + # + O O # + o # # ",
"o ; > : ; : : : : ; : : : : ; O O ; : , 1 : < < 1 < ; - - = = X @ ; < : : - = ; ; ; > : : - = O O = : > < ; ; ; ; : > > > ; = + ",
"# < 1 2 3 3 1 1 5 p e 2 2 1 > # + : 1 j k q 2 7 e 1 < : : : , + # ; 4 5 5 : : , < 5 5 3 2 1 ; # O : q k k 5 5 1 r 7 i r 5 > = o ",
"o ; < F T ^ J F J ^ ^ v m 2 1 + o , q } &.Q Q Q ..F m z v < : + # : 5 n ^ J v v h ^ _ [ C 5 ; O O 1 i @.@.T C L D ) ..W _ 1 : o ",
". ; > F F F L F N W _ C m 2 1 + # > q T } C I I ( P B m z 1 : + # < e F W W F h v ( ( } F 5 : # + 1 2 ) ) T F ^ #.@.[ T S > : # ",
"  = : 3 1 1 1 1 5 r i 2 5 < > + O : 1 q i 2 2 2 3 2 2 e q q 1 + % 1 f e e e 1 1 : 3 1 q 4 3 < @ O ; > 2 2 1 > 2 s r 5 < 2 > : O ",
". % : : : : > : > < 1 > < : = # # : ; : ; ; , < < < , < 1 2 < $ # : : ; = ; - 1 ; : ; : : 1 ; X O * : 1 > = ; ; > > : : ; ; = @ ",
". o @ # @ @ @ @ # + + # # + + O O # + + + O o o o @ $ $ $ $ $ O @ @ O O o @ @ @ O @ @ @ $ # @ . . O # # # @ @ O @ O @ @ @ O O . ",
"o @ @ # # + O . . o + O # @ # # $ & $ + o o o o O @ @ @ + # # # @ @ o X . O O O o O # + @ # o . O @ & & & # @ . o # @ @ O o O o ",
": : > 1 : < ; O o - ; ; < : < < 2 6 7 1 < ; - o @ : < ; : : 1 : : : : : 1 ; - X o - : 1 1 1 : = ; > > > < > : @ O : : ; ; ; : > ",
": 2 5 5 1 2 > @ O ; > 2 q 5 7 7 3 q p 5 4 : ; @ % 1 3 1 4 5 i 4 e e e 5 e 1 ; o O ; 1 1 5 5 1 < 1 1 3 2 5 1 > @ # > 1 1 2 3 p s ",
"W W ^ ^ F 1 : # O - : m @.@.) S v n L ^ F 1 ; O $ 1 e n ]  . .&.+.[ ^ ^  .4 ; o O : 1 I  .^ ( F F L L G L 1 > @ O ; 1 N ^ ^ [ $.",
"C F F F F < ; O O * ; h +.$.+.^ v h F F B 1 ; O $ 2 e C ( ( O.#.| W (  .^ 3 : @ @ 1 1 z B (  .W L L W L L 5 > @ o ; 1 n L ^ T [ ",
"h e 1 2 r 1 : O O - ; 5 a s r p 3 2 > 3 q , ; O # < < 1 2 e a b 3 : : 1 e 1 1 % # 1 2 4 6 e a f r 2 3 5 p 2 > @ o ; > 5 2 3 3 p ",
"> > ; : > > = . X * ; ; : ; : : : > < : < ; - O O : ; ; < < < < - * - ; : 1 : @ @ : ; ; ; : 1 1 > > > 1 2 2 ; @ @ ; > > - : : : ",
"# # @ # # # @ X . O @ @ @ X o O @ @ # # @ @ + . o O + # + $ + + o . . O @ $ @ O o @ @ @ + @ @ # # & & & & @ @ . o @ @ @ @ o @ @ ",
"o @ # O # # O O O @ @ @ @ O o . o O O # O @ @ O O $ + + + + + X . o + $ + + O O O @ @ @ @ @ O o o & & & # # O o o # # + + O # + ",
"o : 1 < < 2 1 1 1 1 : : ; ; * X o - : ; 1 1 < ; < < < : : < < + O = - , , , , , ; ; > : ; ; = O @ > > > > : - * - > 1 < : ; ; # ",
"O : 1 5 2 r q r e f a p k q < O @ < 2 5 5 r e e q e 7 2 < < < $ @ : , 2 2 2 7 < 1 > 1 1 < : = @ @ > < 1 1 2 2 1 2 r s k r 5 2 $ ",
"@ : 1 N S ..) ..^ ..^ ..) r 1 # # 1 a  .#.#. .Q ( D I F A i < $ @ : 2 B P m A D F n T I m : * O # > 3 L W L E L W W ' _ S 5 < # ",
"O > > p s M S S T ^ [ +.@.r > O # 1 z @.+...( ( W T T T F 5 1 # $ 1 1 z m m { T T v I ..W 1 = o @ ; 2 M _ S ( L [ ^ [ W T i 2 @ ",
"O : < 1 5 5 r 2 5 2 1 3 r 1 : O @ < e b b j 6 3 3 3 2 : 1 5 1 # @ : 2 1 > 2 2 2 1 3 e z h > - o @ ; 2 p h 2 > > 2 2 5 4 5 4 < # ",
"O = > > < > ; * = - : : > ; * . X - , 1 < < : : 1 < : - - > : @ O ; : ; - : : < : : 1 2 1 ; = o o * - > > ; ; * : ; > : > < > O ",
"O O O O # # + o o O O @ # % + o . O o + + # # # $ @ @ o O @ # o X O # @ O O @ O O O O O O O o O . o . o o O O o o @ @ @ # @ O X ",
"@ @ o . O # O . . o + & # # # + O O o X o + # + O + + # @ @ @ @ @ # $ O + O @ O O O @ @ @ O + # O o . o O @ O . . @ # + # O # # ",
"; : ; = - > ; O o : > 1 > 2 2 2 : : ; ; : > < # O ; ; > : : : : : < 1 : ; ; : O O = : : : : ; : : ; ; : 1 1 ; @ o - ; ; > : 1 1 ",
"3 5 5 > 1 7 > + O > r b r b q r 1 3 4 1 > : : O + ; < r 5 e 3 3 2 4 e q 2 1 < @ + : q m z r 5 5 1 1 3 r a 3 1 # O - < 4 p 5 s h ",
"E F m C r 1 ; + o ; 7 ) _ .._ _ F } T W m 1 : O O ; 1 T +.[ L L n B F C B 1 1 # O : 1 ....#.L N v n F ..( r > @ O - 1 E ..+...#.",
"+.L s h r 1 - + o ; 5 ) @.[ T ( I _ L C i 1 > O O ; 5 F W ^ W [ L D C } Q 7 1 $ O ; 1 [ +.+.L L n m h F m > : @ O - 2 L ^ L L ( ",
"r 1 > > 1 2 > $ + ; 2 r 5 1 > 5 2 e 5 q 4 2 1 O O = 1 5 2 2 3 r 1 < : q r i 3 % O = ; 5 5 f p r 5 1 1 1 2 < : o O - : < 1 1 q a ",
"> : : ; > < < + # ; > > : : ; : : > > < : ; - . X = : ; = = ; : ; ; = , ; 2 : $ o = ; < 1 < 1 1 1 : = ; : < ; O o % = = * ; ; : ",
"O O O o @ & & + o O o o O O O o O O + # @ # o . . o @ @ O . . X o O o O o O # o . . O O @ # # @ @ # # # # # # . . o @ @ O X O O ",
". X O o O # $ # # O O . o @ @ X o + O + # O O . X o @ o o . X . X O + + O + O + O # # @ O # @ o o O @ @ # $ # # O O @ # @ o . . ",
". - - * : > 1 1 2 1 ; = = = = o o ; ; < : : : = ; ; : = * * * o O : 7 2 < : - ; : : : ; : ; ; . O = 1 > < < > > ; ; > > : : * o ",
"# : > > 4 r z r a i 5 1 2 > - @ O ; ; 2 1 5 5 1 4 > 1 > ; = = o # < k b k q 7 6 5 r p r r 1 : @ @ : 1 1 e e h e e 2 5 3 p 1 : @ ",
"& > 2 i E E .._ ^ L F v v 2 : @ O : 1 C I W ^ ^ W m s x 5 > ; # # 1 k Q W A j j m ^ [ [ L 1 : @ # > 5 L +.+.#.[ ^ F ^ ^ [ f > @ ",
"% : 2 e m C ) ^ C m e h F 5 : @ o - < h C C ( ^ ! N m h s > ; + # > 5 L E D s p r L ^ _ S 5 : # & 1 r W #.%.#.^ J v F F F 5 > o ",
"O ; 1 1 1 1 q q 2 1 : 2 2 > : @ O : 1 4 5 2 5 5 r 1 2 4 r r > # # > < 1 2 1 > : ; 1 2 q 5 > - # # 1 1 a h p 2 1 > > > 3 2 3 : @ ",
". $ = : > < < : ; ; ; : ; : = O O - : : : : : > 1 > 1 > < > = o o = : : < > : = & & = > > : = @ # ; > < < < ; : ; = * = ; < ; o ",
"      O O # # # + @ O O O X @ O O O # # # # o + # + & & & # O o o o @ O # O # o X . + # # # @ o o + + + @ @ O @ @ @ o O @ @ @ o ",
". . . o @ @ # @ O @ @ @ O O # # O # @ @ O O . o o # # # & + O # O + o + + + # X X o + + @ # # O @ @ # @ # # $ # @ @ @ @ @ @ @ o ",
"; = % % = ; : # @ 1 1 < : : > > < 1 1 > : : * O # > > < > 1 > > > > : ; > < < + # = > - > > 1 > > < < > : > ; @ o = > > : : : = ",
"> 1 > 1 5 1 > # & 1 2 f h h 5 3 5 i 3 2 < : : @ # > 1 1 1 2 1 2 1 3 2 2 r s r # & < 7 1 2 3 3 3 2 3 3 1 1 2 < @ o = > 1 : 3 2 > ",
"[ F m F F > : # @ > 5 ^ +.+.[ [ _ ..^ T h 1 ; @ # < 4 v m N C h L _ +.[ { k < + # 1 r m F F F J n F L v f > ; O o ; : p F J L T ",
"_ W ^ ^ T 3 : @ @ < 5 L ..#...^ ^ +.^ W v 1 : # # > 2 m N v m m L ^ @.#.) r > O # < e I T F F F T ^ _ L m > : @ # ; ; p F T [ ^ ",
"h q e 5 p 5 : o O : > 2 r s p 5 1 5 5 2 1 > : @ # ; < 2 2 2 5 5 5 5 r b b 7 > O # > 3 1 < 1 2 e r p 5 1 1 > ; @ @ ; > 3 5 5 a h ",
": : : ; < : ; o . = ; ; ; > : = ; ; ; ; = : ; @ O = > > ; = > > : - < < 2 ; - X O ; : : : 1 : : > > > > > > > # O = > > > > 1 3 ",
"O O @ o @ @ @   X o O O O @ O X O O @ @ @ @ @ X X O # + O O O # + O + + # + + O O # O # @ # @ @ o O o O o O # o o o @ @ o o O # ",
"o O @ o . . X o O @ @ # # @ @ . o O $ # $ # # O O # # # O O o . . o # @ O o O O @ @ # $ $ % @ . o O @ O o o O O O o O X X X o X ",
"O ; : ; = = - = ; ; > > : : % o O : 2 < 1 : : - : : q 1 < ; ; O O = ; : ; : : < : > : : : , = X O ; > = - - ; > > - = = ; = = o ",
"O > 1 5 1 1 5 1 2 1 2 5 1 : - @ # : e e b q q 2 3 e e e r 7 > O o - > q 3 3 2 1 1 1 > 2 2 < = X # > r 5 2 > 2 r 2 < < 5 5 2 - O ",
"# 1 1 N F [ ^ L m m F T v : % o O : q F ..} { P I T F ( W i 1 # O ; 1 F ....^ T F [ F F h : = . + ; 2 C I W L L k L S ' ^ p > + ",
"# 1 2 b C [ ..( F F ^ ^ F : % o . ; e F [ _ _ ^ T ^ F ^ F 5 > O + ; 2 m W F F N J [ +. .F 1 ; O O ; 1 S _ W M M F ^ W W L 5 < # ",
"# 1 2 2 1 5 5 1 > 3 5 5 1 : %   . = 1 1 1 1 1 < 1 1 1 1 5 > > O # ; 1 < 3 : 1 1 3 f f f 5 1 ; O o ; 1 5 i r < > : > 2 5 5 1 : # ",
"O - ; ; ; : > : ; 1 ; > ; ; - . . & : = = ; ; ; : < : ; ; = : O # ; 1 ; ; = = = ; : 1 1 1 : = o o ; > 1 2 < > - - = ; : ; ; = O ",
". X O + O o O O @ @ @ @ @ @ @ . . . O O O # O @ O @ @ @ @ O @ O + # # O @ o @ o # # # # @ @ O o o # # # @ # # + o o @ # @ O . . ",
"@ @ @ @ @ @ @ o @ @ @ @ @ @ @ @ o O O O O O O o o O # $ # + O # & & $ O O O O o O $ + $ + + @ @ @ # # @ # # # o o o @ # @ . o o ",
"- ; 1 1 > - % @ @ % > % ; - ; - ; > > < : > ; O + ; 1 1 < ; - : < < : : < : ; O + < 1 7 < 1 > < < ; ; ; ; > > O @ = 1 : : = - - ",
"1 5 5 p 3 ; - @ @ : > > 3 3 5 5 5 5 p 5 2 < = O O : 1 7 i q q j i 2 2 r r 2 , O @ 2 q s i i q p r 5 < 1 > 2 > # @ : 1 1 5 > 1 1 ",
"5 F L F v > : @ @ : 1 F J J J J ^ ^ [ _ L 1 = O O ; 1 S Q { @.@.I ) ^ +.W 5 : O O : r @.&.@... .+.T C z s 7 1 & # : 1 v C L v F ",
"v F J v v > > @ @ > 1 F J F F F ^ ^ W W F 3 = O o : 2 D ( ....&.T ......L 1 - . o : q C ......^ ^ E D m v 5 1 @ & 1 2 F F T h h ",
"3 1 3 : 3 3 1 @ @ 1 1 5 1 5 5 > 5 e p 3 3 1 : O O 2 q i 2 3 q e 5 h p h 2 : = . o * 1 5 3 q 5 2 3 5 r 2 2 2 5 % % 1 > 3 > e 1 > ",
": - : : 1 1 ; @ @ > > ; % ; - ; : > > < : < ; O # > 2 > : : > 1 < 1 > 1 < ; * X . * : > : ; ; : ; > > ; : : < # # ; : > 1 1 1 : ",
"o o # # % % @ o @ @ @ @ @ @ @ @ # # # # # # O O o # # O @ O # % # # @ # # # + X . o # # @ O O + # # + O @ @ % @ O o O O @ & & # "
};
