/* XPM */
static char *_f830242d11c4474b14981eac8802c12gHZOWJuhTsVL0D0F[] = {
/* columns rows colors chars-per-pixel */
"64 64 206 2 ",
"   c #2F220B",
".  c #2C2019",
"X  c #382A17",
"o  c #34241E",
"O  c #3D241C",
"+  c #3F3011",
"@  c #3C1D23",
"#  c #1C222E",
"$  c #2B2226",
"%  c #2B2627",
"&  c #23242B",
"*  c #2B2428",
"=  c #2C2B2A",
"-  c #322225",
";  c #3F2022",
":  c #3C2824",
">  c #362629",
",  c #362A29",
"<  c #3E292C",
"1  c #3C2D34",
"2  c #3C3039",
"3  c #422D14",
"4  c #482F15",
"5  c #45261F",
"6  c #47281E",
"7  c #4B2B1D",
"8  c #502F1B",
"9  c #433217",
"0  c #4B3115",
"q  c #4E301C",
"w  c #4C3A1D",
"e  c #563617",
"r  c #573817",
"t  c #5C3C16",
"y  c #53341A",
"u  c #583719",
"i  c #56391A",
"p  c #5B3B19",
"a  c #603F15",
"s  c #613F1C",
"d  c #432421",
"f  c #462821",
"g  c #4A2B22",
"h  c #412C2D",
"j  c #443424",
"k  c #4E3024",
"l  c #493927",
"z  c #523223",
"x  c #523B22",
"c  c #5A3A22",
"v  c #412F30",
"b  c #473738",
"n  c #513F33",
"m  c #5E4119",
"M  c #654415",
"N  c #684715",
"B  c #674817",
"V  c #6A4815",
"C  c #63431A",
"Z  c #68471D",
"A  c #66491A",
"S  c #6D4C1C",
"D  c #714E1A",
"F  c #6F501F",
"G  c #75521C",
"H  c #79561D",
"J  c #7C591F",
"K  c #4E422B",
"L  c #5B4627",
"P  c #52452C",
"I  c #5C442A",
"U  c #564A31",
"Y  c #5B4C32",
"T  c #5F5237",
"R  c #5F5238",
"E  c #654927",
"W  c #704F20",
"Q  c #6D562D",
"!  c #745221",
"~  c #785723",
"^  c #7D5B21",
"/  c #71582A",
"(  c #644830",
")  c #6A5535",
"_  c #6B5837",
"`  c #63553A",
"'  c #65583C",
"]  c #6B5B3E",
"[  c #755D34",
"{  c #725E3B",
"}  c #7B6236",
"|  c #79643E",
" . c #4F4E4F",
".. c #5B4F4A",
"X. c #5F504A",
"o. c #6C5D42",
"O. c #725643",
"+. c #6D6043",
"@. c #736344",
"#. c #7B6642",
"$. c #7B6946",
"%. c #746548",
"&. c #7B6B4C",
"*. c #7E6F53",
"=. c #796B59",
"-. c #815E22",
";. c #856224",
":. c #8C6927",
">. c #896728",
",. c #8C6929",
"<. c #916D2A",
"1. c #95712B",
"2. c #9A762E",
"3. c #83653A",
"4. c #83693D",
"5. c #8D703A",
"6. c #91743F",
"7. c #806742",
"8. c #826B43",
"9. c #826E4B",
"0. c #8A7144",
"q. c #85714B",
"w. c #8B744C",
"e. c #8E784F",
"r. c #937642",
"t. c #967946",
"y. c #907649",
"u. c #937A4C",
"i. c #9A7D4B",
"p. c #806F51",
"a. c #857251",
"s. c #8D7752",
"d. c #8D7956",
"f. c #8C7B5B",
"g. c #947D55",
"h. c #997F51",
"j. c #927F5B",
"k. c #8F7C63",
"l. c #9C804E",
"z. c #9D8253",
"x. c #9C845B",
"c. c #9B855D",
"v. c #A18554",
"b. c #A48857",
"n. c #A1875B",
"m. c #A58A5C",
"M. c #AA8E5E",
"N. c #8D816E",
"B. c #948263",
"V. c #9B8561",
"C. c #9E8864",
"Z. c #958369",
"A. c #9B8669",
"S. c #9F8A6C",
"D. c #998D74",
"F. c #9F9478",
"G. c #A38C64",
"H. c #A98F63",
"J. c #A38D6A",
"K. c #AD9364",
"L. c #A4916D",
"P. c #AD956C",
"I. c #AF986F",
"U. c #B09566",
"Y. c #B1976A",
"T. c #B49A6C",
"R. c #B89D6F",
"E. c #A69373",
"W. c #AB9673",
"Q. c #AE9B7B",
"!. c #B49C73",
"~. c #B99E72",
"^. c #B39E79",
"/. c #BCA175",
"(. c #B7A17D",
"). c #BCA47A",
"_. c #C1A67A",
"`. c #C3A97E",
"'. c #A69B84",
"]. c #B5A283",
"[. c #BBA682",
"{. c #BDA985",
"}. c #B5A689",
"|. c #B7A98A",
" X c #BCAA8A",
".X c #BDAE91",
"XX c #C5AC83",
"oX c #C9AE83",
"OX c #C3AE8B",
"+X c #C9B086",
"@X c #CAB186",
"#X c #C5B28D",
"$X c #CBB38B",
"%X c #C9B68A",
"&X c #CEB58B",
"*X c #CEB58D",
"=X c #D2B88F",
"-X c #CBB591",
";X c #CCB895",
":X c #D3BA90",
">X c #D4BB92",
",X c #D4BC94",
"<X c #D6BD94",
"1X c #D8BF97",
"2X c #D3BE9A",
"3X c #D9C097",
/* pixels */
"/.@XY.3.[ y.H.T.~.K.5.} /.).T.oX:X@X<X3X*XoX3Xb.m.oXXX3X1X>X*X&X@X&X*X<X=X@X~.<X<X<X<X=X`.`.&X<X<X<X<X<XoX/.@X<X:X@X<Xd.W.:X%X<X",
").:X/.) Y u.m.m.Y.R.R./.`.=X:Xa.@.%.f.^.[.).~.oX/.oX`.~.R.R.oX).).oX`./.`.M.M.&X<X>X<X`./.~.R.~.@X:X=X:X~.Y.R.`.<X=X=XU J.<X<X<X",
"~.>XM.T   C.*XK.l.v.m.M.&X>X&X/.G.K.s.n.n.z.m.K.K.m.K.K.R.~.`.~.b.T.U.oX/.m.i.v./.T.m.T.@X_.K.Y.).l.K.m.M.K.R.v.M.v.@.K o.@X`.1X",
"oXm.i.K X 8._ 0.m.v.m.m.M._.oX/.oX/.R./.~.T.T./.&X*XXXB.@X*Xd.9.e.g.K.K./.U.m.K.:X`.z.K._.U.oXoX1XT.`.oX=X).oX@X@XM.u.l %._.R.<X",
"oXi.r.o.X S.o.f.G.c.c.G.).(.P.G.j.d.K._.&XoX).a.@.o.o.@.B.&.o.@.9.s.K.H.~.c.J.P.^.OXR.).^.C.<X<X<XT.R./.`.P.G.^.).~.w.P *.v.K.<X",
"U.z.U.{   ` U P P P #.$.&.] ] 9 l U P ' ] Y Y w w @.&.] + 3 U ' f.' T f.J.@.' Y R %.' &.+.Y Y Y @.p.o.%.+.*.p.` T o.&.U o.l.M.<X",
"!.i.).` b y y @ 4 X q O q 7 E ( x i i g L E C 7 p p 7 6 e y 0 * & t M t 5 t t t O 4.4.a O.E i 0 x O 4 3 9 o O I I 5 m j &.l.v.-X",
").i.Y._ y r y ; 7 7 y 7 7 y y 7 7 y y 7 y y y q y y 7 7 t y y % % t y p 7 p t d 7 s t p g t C p p 7 p p C 7 7 y y @ y 0 -X6.v..X",
"!.z.!.8.p q q ; 7 y y 7 7 y y 7 7 y y 7 y p y 7 y e 7 e M y y & , p y p 7 p p d 5 Z t M 7 y p y y y y y s 7 7 y y @ r r $X6.M.F.",
"x.i.T.} ( q y @ y y 7 q y y p 7 7 t t 5 y ! y 7 y y S 5 N e e # & e e G d M M 5 6 C t y 7 C y y y 7 y y p 7 t y d @ r r oXi.oXD.",
"z.r.T.#.y y y @ p y 7 7 t ! t y e N t ; p S t 7 e e ;.f N p e # # e e S 7 M t 7 7 C t y 6 ! t t e 5 t y y y 7 C 5 @ p y P.K.oX{.",
"u.t.h.q.y q y @ p y 7 5 Z -.a y e M M 5 S y N d e D ;.d G Z e # # e e g N M M f 5 Z y y 5 Z G e e 5 M y ^ f @ t g p m r V.K.oX@X",
"u.r.| { y 7 y @ p C g ; S G S p 7 N y ; ! e N ; e :.N d Z e e # # e e g N V N Z @ J N e @ ! V ;.5 f N N >.@ @ a 5 S m p J.Y./.@X",
"x.t.8.g.y y y @ y Z g d G M S z 7 N ; d ~ M N ; Z :.N g t e e # e e e g M V N D @ J N e @ -.N >.6 d N N N ; @ N 5 p A e XXK.~.XX",
"P.K.E A.$ $ $ @ C N g # # # # # # # # # # # # ; <.e N g M e # # e N e g N N N N f # # # # # # # # # # # # @ @ M # # # X.(.@X1X`.",
"z.l.) P - $ $ $ & # # # # # # # # # # # # # # # # e G f t e # # e N e f J N e # # # # # # # # # # # # # # # # # # # #  .XXoX3X/.",
"K.b.c.n * * * $ M D Z & & # # # # # # # # # # z C e G f e e # # e N N f g N N e f # # # # # # # # # # # # @ <.N # # # # OX).:X_.",
"(.K.w.j 7 y $ @ M D G g t G e 7 y H N d M e ; f C N G d t e # # N N N M g N N N d N N e @ e e M V z V N e @ <.N N 7 C e {./.=X`.",
"|.b.e.: 7 y y @ N D G g G G t 7 y G D d M e ; f C N G d e e # # V N e M g ;.t N f N N e @ e e N N z V N M @ N 1.e 7 m e (.T.1X@X",
"OXv.u.: 7 y 8 @ N G ^ g G t M 7 N S D ; M G N f C H M 7 e e M # e V e M g <.t N f D N e @ e M N e z V N @ @ N 1.e 7 p e Q.T.1X=X",
"OXv.} : 7 y 7 @ N G ; k M M M 7 N G M ; M G N d C H N 7 N N M # e V M M g ! N e d D C a @ M N V M z V V @ 7 N 1.N 5 p e (./.<X;X",
"OXU.#.: 7 y 7 @ M ;.M ; t M M 5 N G N d D N N d C H N 7 N N e # e V N N d G N N d N C a @ M N e M k V e @ @ N 1.N 5 p e !.U.<X:X",
"OX~.9.o 7 y 7 @ a ;.M ; t M N f N G N d G N N @ S G N 5 N N e # e V N y d G N N d N C M @ N N e N z V M @ @ N 2.N 5 p e f.M.1X<X",
"!.`.&.o 7 y y ; M ;.~ ; y M N f N H @ d G N M @ S C N 7 e e e # e V N @ ,.M G N ; >.C N @ V N N N z N M G @ e 2.t 5 m ) E.m.<X*X",
"^.`.x.. 7 y y ; M S :.; y M e f N J @ ; G N N @ S C 5 7 N e e # e V N @ >.N D N @ ;.S N @ V e N 7 z N M H @ M 2.t 5 m i W.M.:X:X",
"P.K.K.. 7 y 7 d a r ,.d p t M f N J d f N N N @ S S 5 7 N e e # V N N @ >.N N N @ ;.G N @ V N V k g V N H @ 2.N N 6 C e G.v.*X*X",
"n.R.G.o 7 y y d M y ;.d r t M f N J N g N N N @ S S d d N e e # # e V @ >.N M N ; ;.G N @ V N V g d 5 N G @ 2.N M 7 C e G.v.).:X",
"P.).L.o y y y d S e >.d y e M f V J e g N N V ; S S 5 7 N e e # # e V @ ;.;.N N d >.D N @ e N V 7 f 7 a G @ 2.N N y Z e K.z.R.=X",
").~.^.h y q y @ S e >.d y e M d S J e f M N V ; N V g N N e e # # e V @ >.-.N N 5 >.G N @ -.V V N 7 e M G @ 2.N N 5 Z e j.i.K.1X",
"P.m. Xb y y y ; Z e >.; ~ e M d G ^ e f e N V @ N N g N N e e # # e V @ >.N J e f >.G M @ ^ V V N d M N G @ 2.N N 5 A 0 B.i.H.1X",
"!.m.@Xv y y y d e S >.d ~ e N 7 H N ! g t N V @ N N g N N e e # # e N N @ N N 7 g N G N @ V J e N ; N J e @ 2.N 7 N Z y *.u.x.*X",
"[.h.{...y 7 u d e D ^ d ~ e N 7 S N ~ f a N V d N e g N N e e # # e t N @ ;.N 5 c N S N @ e H e N ; N J e @ 2.N f f Z y =.0.n.oX",
").h. XX.y 7 y d N D ~ d ^ e V 6 e G ~ f a N V d N ! & 6 N N e # # e a M @ # N 5 >.N M N @ V V t N f N J e @ 2.N d d Z y o.t.Y.@X",
"-Xx.N., y 7 y d B S ~ d t ~ V 6 e G -.7 a N V d N ! # d N N e # # e M y @ # e d >.N N e @ V V e N 7 N J e @ 2.N d ; C 4 Z.t./.1X",
"OXG.}.k 7 7 y d N ~ H ; e ~ M 5 e G -.7 M N N d N x # & N N N # # e M 7 # # e d >.N N e @ V e e V 7 V ! e @ ,.N d ; C y Z.l./.1X",
"-Xm.OX< 7 y y d p C ;.; t ~ M 6 e G -.7 M N M d = & # # # N N # # M M @ # # & g N N M V @ V e e G 7 J e e @ >.N f ; C y a.K.~.1X",
"2Xw.L.< 7 y y d p p ~ ; a ~ V 6 e D -.7 a N M d = C N d & N N # # e M # 7 H # * N N M V @ e e e g 5 J e e @ ;.N f d C e c.z./.1X",
" Xu.E.< 7 y y d p N ^ d M ^ V 6 t S z d a N M d = e 7 6 & e N # # e M # f -.# * >.N M V @ e N e g 7 G e M @ ;.N g ; p e n.z.~.1X",
"|.c.W.h 7 y d f p N ^ d M ^ V d N Z z d M N M d >.& & & N V e # # e M # # # # f ;.N M V @ N -.N g 5 G e M A @ N g d 5 e x.g.Y.1X",
"].g.W.h 7 y 5 6 p M -.d t ^ V 5 N a c 5 e N V d >.N N 7 N V e # # e M N z N N g M -.M V @ N ;.V J 6 t S M d @ N g M d e j.u.K.<X",
"}.g.S.y 7 y f f N M ;.f t ~ N 6 N t ;.7 M N D d >.N M 7 N V e # # M e N k N N D 5 N G V ; @ ;.V -.f M Z e @ @ N f N p e s.u.H.1X",
"{.H.A.k 7 r p d N M ;.d M C V 6 N M ^ 7 M N G f >.N f 7 N N e # # M e N g N N D 5 e N G @ @ >.M ;.f D Z N @ @ N f M p e q.4.H.:X",
"D.G.k.k 7 y y d M M ;.d M a V 6 N M c 8 M M J 7 ;.N f N N e e # # e M N g N N D 5 e N D @ @ >.V ;.f D N V @ @ N f N e e j.4.v.<X",
"].H.=.> 7 y q 5 G M J f t a V d N M c y e M -.7 ^ N S f N e # # # e N N f N N N g N V e @ V >.N -.f Z G V @ C N f M e e w.} u.<X",
".XH.Z.> 7 y 7 g M e J f e a V d N M c y e M ;.d ^ N D f N e # # # e N N f N N N f N V e @ V >.N -.f e G V @ a G 7 M p e u.[ h.-X",
"Q.z.x.7 7 7 7 f M e J d e M V 5 N e k e e N ;.f ^ N S f N e # # e e N d f N N e d N V e @ V e -.L f N G V @ M ^ # 5 p e z.Q u.:X",
"Q.h.7.- - - 7 f M M = # & # # # # # # & # # ;.5 e ;.D f N e # # e e N ; d e N e d # # & # # # # # # # # # @ -.# # # # # z.Q z.<X",
"-Xm.#.- - - - * # # # # & # # # # # # # # # # # # ;.C f N e # # e e N ; d p N # # # # # # # # # # # # # # # # # # # # # u.Q i.<X",
"#X~.q.- - - y * # # & & # # # # # # # # # # & d e -.D 5 N e # & e e N ; ; p N d f # # # # # # # # # # # # # -.# # # # # z./ i.<X",
"#XT.G.- $ - y ; ^ M N # # # G f N A 5 M M B ;.d d ^ f 5 p e # & e e N @ ; m N d g N e @ @ V M ^ N 7 m e w @ -.e # # e # u.} m.<X",
"}.n.G.7 7 y y 5 ^ M N W N e H f N A 7 7 N B ~ f d ^ f f m e # & e N N @ ; m e d k e e @ @ V M J V f N e t ; @ e q 7 e e u.8.R.<X",
"#XT.n.b 7 y y 5 ^ e N d N e H f A B e 7 B N F 5 f ^ f f m e # # t N N @ H p e d g M e @ @ V e J p 5 N e G @ @ N f M M e m.m.`.<X",
"}.P.XX> 7 y y d ^ e M d N S N f A e e q N N G ; g N N g m e # # p N N @ c p e f J N e @ @ V ! N p 5 N e G @ F N f N N t K.b.~.<X",
"'.G.{.h 7 q 7 5 N ! M d N S N f N p C 7 N M ;.; g N N f S e # # e N V @ z f N d J N p S @ V ! e p d N N S @ m N 6 B M p I.x.).<X",
"2XH.OXh 6 7 6 5 N ^ M d N H V f e C e z N ;.N ; ^ N N f z e # # # p V @ p 5 N d J N C V @ V ^ e p d N N A @ B N d m M p J.z.P.-X",
"-X!.(.h 7 y 7 5 A -.N d N G N f N Z 7 p M ;.N ; H e 7 6 c e # # # p V e 7 g N d J e S V @ J V N B d V A A @ B N f C B N G.q.G.1X",
"<XT.Q.< 7 y y 7 B ^ N f S M V f N Z z y ;.N N ; G e N 6 c e # # # p m e 7 d N f J e W V @ J V V B f V N M @ m M 7 m A p g.s.G.1X",
"@Xz.L.< q y y 5 N ^ N W V N e f N e z y >.M ; 6 S e N 7 c e e # # e m N f d N f N ! S V @ Z V V V d V N N @ C M d p B p e.q.L.:X",
"@X8.^.< q y y 5 N N ^ 7 N M e f N e 6 ~ D N ; d B e N z 7 e e # # e C N ; d N N ; -.V V @ C V V V ; N -.e @ B N d B B p 8.{ V.$X",
"XX4.J.h y y y 5 N M ^ g N M M f N M 6 :.Z N @ d t M N z N e e # # e C N @ ; S N ; ;.V V @ p V V V ; N ;.e @ B B d B B e w.| W.2X",
"@X4.C., 7 y u 5 N M N ; N N e f N M c 7 e N e N d M N z N N N # # p A N @ N N N d M -.V @ @ V V V ; >.N N @ N A d f p e L.q.^.W.",
"[.0.T.1 y y p 7 N e N d N N e f N M z y N N N 7 ; M ;.7 N N N # # e N N @ N N N 5 N J V @ @ V V N @ >.M N @ N B d d p e ^.q.V.W.",
"^.C.XXb y y M 6 N e e f N N e f e e e 7 M N N d d ^ -.5 e N e # # e N e @ N M e 5 N e S @ @ V V e @ >.M M @ N e d d m e ].k.#X|.",
"f.-X-X2 e e N 7 N y e e N N e f e e e N M e e d e e e y e e e e # e e e @ e e e M e e e @ @ V V y @ -.e M @ e e d d m e D.D.-X'."
};
